<?xml version="1.0" encoding="UTF-8" standalone="no"?>
<svg
   version="1.1"
   id="Layer_1"
   x="0px"
   y="0px"
   viewBox="0 0 349.99999 350"
   xml:space="preserve"
   sodipodi:docname="logo-awx.svg"
   width="350"
   height="350"
   inkscape:version="1.3 (0e150ed6c4, 2023-07-21)"
   xmlns:inkscape="http://www.inkscape.org/namespaces/inkscape"
   xmlns:sodipodi="http://sodipodi.sourceforge.net/DTD/sodipodi-0.dtd"
   xmlns="http://www.w3.org/2000/svg"
   xmlns:svg="http://www.w3.org/2000/svg"><defs
   id="defs18" /><sodipodi:namedview
   id="namedview18"
   pagecolor="#ffffff"
   bordercolor="#000000"
   borderopacity="0.25"
   inkscape:showpageshadow="2"
   inkscape:pageopacity="0.0"
   inkscape:pagecheckerboard="0"
   inkscape:deskcolor="#d1d1d1"
   inkscape:zoom="0.63047091"
   inkscape:cx="177.64499"
   inkscape:cy="195.09227"
   inkscape:window-width="1698"
   inkscape:window-height="827"
   inkscape:window-x="0"
   inkscape:window-y="95"
   inkscape:window-maximized="0"
   inkscape:current-layer="Layer_1" />&#10;<style
   type="text/css"
   id="style1">&#10;	.st0{display:none;}&#10;	.st1{display:inline;fill:#FAEDA1;}&#10;	.st2{display:inline;fill:#5D2815;}&#10;	.st3{fill:#FAEDA1;}&#10;	.st4{fill:#5D2815;}&#10;	.st5{fill:#2D8CCE;}&#10;	.st6{fill:#794532;}&#10;	.st7{fill:#026DAE;}&#10;	.st8{fill:#FF4B4B;}&#10;	.st9{fill:#ABDBF7;}&#10;	.st10{fill:#CB2D2F;}&#10;	.st11{fill:#FCA2A3;}&#10;	.st12{fill:none;stroke:#5D2815;stroke-width:5;stroke-miterlimit:10;}&#10;	.st13{fill:#FFFFFF;}&#10;	.st14{fill:#A4CE39;}&#10;</style>&#10;<g
   class="st0"
   id="g1">&#10;	<polygon
   class="st1"
   points="176.12,377 130.18,303.5 176.12,230 249.79,230 295.72,303.5 249.79,377 "
   id="polygon1" />&#10;	<path
   class="st2"
   d="m 248.95,231.5 45,72 -45,72 h -72 l -45,-72 45,-72 h 72 m 1.67,-3 h -1.66 -72 -1.66 l -0.88,1.41 -45,72 -0.99,1.59 0.99,1.59 45,72 0.88,1.41 h 1.66 72 1.66 l 0.88,-1.41 45,-72 0.99,-1.59 -0.99,-1.59 -45,-72 z"
   id="path1" />&#10;</g>&#10;&#10;&#10;<g
   class="st0"
   id="g4">&#10;	<polygon
   class="st1"
   points="57.12,451 11.18,377.5 57.12,304 130.79,304 176.72,377.5 130.79,451 "
   id="polygon4" />&#10;	<path
   class="st2"
   d="m 129.95,305.5 45,72 -45,72 h -72 l -45,-72 45,-72 h 72 m 1.67,-3 h -1.66 -72 -1.66 l -0.88,1.41 -45,72 -0.99,1.59 0.99,1.59 45,72 0.88,1.41 h 1.66 72 1.66 l 0.88,-1.41 45,-72 0.99,-1.59 -0.99,-1.59 -45,-72 z"
   id="path4" />&#10;</g>&#10;&#10;&#10;&#10;&#10;&#10;&#10;&#10;&#10;&#10;&#10;&#10;&#10;&#10;&#10;&#10;&#10;<g
   id="g19"
   transform="translate(0.96903147,13.770151)"><g
     id="g2"
     transform="matrix(0.57021902,0,0,0.57021902,18.049547,49.164429)">&#10;	<polygon
   class="st3"
   points="537.9,303.5 491.34,378 416.57,378 370.01,303.5 416.57,229 491.34,229 "
   id="polygon2" />&#10;	<path
   class="st4"
   d="m 489.95,231.5 45,72 -45,72 h -72 l -45,-72 45,-72 h 72 m 2.78,-5 h -2.77 -72 -2.77 l -1.47,2.35 -45,72 -1.66,2.65 1.66,2.65 45,72 1.47,2.35 h 2.77 72 2.77 l 1.47,-2.35 45,-72 1.66,-2.65 -1.66,-2.65 -45,-72 z"
   id="path2" />&#10;</g><g
     id="g3"
     transform="matrix(0.57021902,0,0,0.57021902,18.049547,49.164429)">&#10;	<polygon
   class="st3"
   points="537.9,156.5 491.34,231 416.57,231 370.01,156.5 416.57,82 491.34,82 "
   id="polygon3" />&#10;	<path
   class="st4"
   d="m 489.95,84.5 45,72 -45,72 h -72 l -45,-72 45,-72 h 72 m 2.78,-5 h -2.77 -72 -2.77 l -1.47,2.35 -45,72 -1.66,2.65 1.66,2.65 45,72 1.47,2.35 h 2.77 72 2.77 l 1.47,-2.35 45,-72 1.66,-2.65 -1.66,-2.65 -45,-72 z"
   id="path3" />&#10;</g><g
     id="g5"
     transform="matrix(0.57021902,0,0,0.57021902,18.049547,49.164429)">&#10;	<polygon
   class="st3"
   points="297.9,156.5 251.34,231 176.57,231 130.01,156.5 176.57,82 251.34,82 "
   id="polygon5" />&#10;	<path
   class="st4"
   d="m 249.95,84.5 45,72 -45,72 h -72 l -45,-72 45,-72 h 72 m 2.78,-5 h -2.77 -72 -2.77 l -1.47,2.35 -45,72 -1.66,2.65 1.66,2.65 45,72 1.47,2.35 h 2.77 72 2.77 l 1.47,-2.35 45,-72 1.66,-2.65 -1.66,-2.65 -45,-72 z"
   id="path5" />&#10;</g><g
     id="g6"
     transform="matrix(0.57021902,0,0,0.57021902,18.049547,49.164429)">&#10;	<polygon
   class="st3"
   points="177.9,83.5 131.34,158 56.57,158 10.01,83.5 56.57,9 131.34,9 "
   id="polygon6" />&#10;	<path
   class="st4"
   d="m 129.95,11.5 45,72 -45,72 h -72 l -45,-72 45,-72 h 72 m 2.78,-5 h -2.77 -72 -2.77 l -1.47,2.35 -45,72 -1.66,2.65 1.66,2.65 45,72 1.47,2.35 h 2.77 72 2.77 l 1.47,-2.35 45,-72 1.66,-2.65 -1.66,-2.65 -45,-72 z"
   id="path6" />&#10;</g><rect
     x="161.14601"
     y="231.91962"
     class="st4"
     width="22.808762"
     height="31.362045"
     id="rect6"
     style="stroke-width:0.570219" /><path
     class="st5"
     d="M 263.50032,243.60911 H 81.030238 c -4.704307,0 -8.553286,-3.84898 -8.553286,-8.55328 V 126.71422 c 0,-4.70431 3.848979,-8.55329 8.553286,-8.55329 H 263.50032 c 4.70431,0 8.55329,3.84898 8.55329,8.55329 v 108.34161 c 0,4.7043 -3.84898,8.55328 -8.55329,8.55328 z"
     id="path7"
     style="stroke-width:0.570219" /><path
     class="st4"
     d="m 199.63579,268.12853 h -54.17081 c -2.3493,0 -4.27664,-1.92734 -4.27664,-4.27664 v 0 c 0,-2.3493 1.92734,-4.27664 4.27664,-4.27664 h 54.17081 c 2.3493,0 4.27664,1.92734 4.27664,4.27664 v 0 c 0,2.3493 -1.92163,4.27664 -4.27664,4.27664 z"
     id="path8"
     style="stroke-width:0.570219" /><rect
     x="178.25258"
     y="231.6459"
     class="st6"
     width="5.7021904"
     height="27.940733"
     id="rect8"
     style="stroke-width:0.570219" /><path
     class="st7"
     d="m 72.762062,204.54911 v 30.79183 l 199.006438,0.57022 v -3.42132 c 0,0 -75.26891,-2.28087 -137.99301,-7.41285 -62.724085,-5.13197 -61.013428,-20.52788 -61.013428,-20.52788 z"
     id="path9"
     style="stroke-width:0.570219" /><path
     class="st8"
     d="m 272.05361,235.05583 c 0,4.7043 -3.84898,8.55328 -8.55329,8.55328 H 81.030238 c -4.704307,0 -8.553286,-3.84898 -8.553286,-8.55328"
     id="path10"
     style="stroke-width:0.570219" /><path
     class="st9"
     d="m 271.7685,154.94005 v -30.79182 c -3.41561,-5.70219 -7.97737,-5.13197 -17.10087,-5.13197 -26.72046,0 -55.39108,-0.49609 -82.11154,-0.57022 -25.89365,-0.0741 -51.65614,0.0741 -77.549784,0 -7.412847,-0.0228 -19.387447,0 -22.244244,5.13197 0,1.14044 0,2.28088 0,3.42132 0,0 75.268908,2.28087 137.992998,7.41284 62.72409,5.13197 61.01344,20.52788 61.01344,20.52788 z"
     id="path11"
     style="stroke-width:0.570219" /><polygon
     class="st10"
     points="95.77,325.95 146.66,325.95 154.83,339.66 107.77,339.95 98.77,334.95 "
     id="polygon11"
     transform="matrix(0.57021902,0,0,0.57021902,18.049547,49.164429)" /><polygon
     class="st11"
     points="445.53,326.13 385.32,326.13 394.58,340.84 433.54,341.11 441.98,335.66 "
     id="polygon12"
     transform="matrix(0.57021902,0,0,0.57021902,18.049547,49.164429)" /><path
     class="st12"
     d="M 263.50032,243.60911 H 81.030238 c -4.704307,0 -8.553286,-3.84898 -8.553286,-8.55328 V 126.71422 c 0,-4.70431 3.848979,-8.55329 8.553286,-8.55329 H 263.50032 c 4.70431,0 8.55329,3.84898 8.55329,8.55329 v 108.34161 c 0,4.7043 -3.84898,8.55328 -8.55329,8.55328 z"
     id="path12" /><g
     id="g14"
     transform="matrix(0.57021902,0,0,0.57021902,18.049547,49.164429)">&#10;	<path
   class="st13"
   d="m 207.93,188.72 h 24.16 l 8.7,46.08 12.73,-46.08 h 24.07 l 12.76,46.02 8.71,-46.02 h 24.04 l -18.15,82.32 h -24.94 l -14.44,-51.83 -14.38,51.83 h -24.95 z"
   id="path13" />&#10;	<path
   class="st13"
   d="m 325.79,188.72 h 28.02 l 14.57,25.32 14.18,-25.32 h 27.74 l -25.62,39.87 28.04,42.45 h -28.58 l -16.26,-26.45 -16.26,26.45 h -28.41 l 28.4,-42.9 z"
   id="path14" />&#10;</g><g
     id="g15"
     transform="matrix(0.57021902,0,0,0.57021902,18.049547,49.164429)">&#10;	<path
   class="st13"
   d="m 187.02,257.45 h -28.88 l -4.01,13.59 h -25.97 l 30.94,-82.32 h 27.75 l 30.93,82.32 h -26.64 z m -5.28,-17.8 -9.09,-29.59 -8.99,29.59 z"
   id="path15" />&#10;</g><g
     id="g16"
     transform="matrix(0.57021902,0,0,0.57021902,18.049547,49.164429)">&#10;	<circle
   class="st14"
   cx="490.45001"
   cy="83"
   r="11"
   id="circle15" />&#10;	<path
   class="st4"
   d="m 490.45,74.5 c 4.69,0 8.5,3.81 8.5,8.5 0,4.69 -3.81,8.5 -8.5,8.5 -4.69,0 -8.5,-3.81 -8.5,-8.5 0,-4.69 3.82,-8.5 8.5,-8.5 m 0,-5 c -7.46,0 -13.5,6.04 -13.5,13.5 0,7.46 6.04,13.5 13.5,13.5 7.46,0 13.5,-6.04 13.5,-13.5 0,-7.46 -6.04,-13.5 -13.5,-13.5 z"
   id="path16" />&#10;</g><g
     id="g17"
     transform="matrix(0.57021902,0,0,0.57021902,18.049547,49.164429)">&#10;	<circle
   class="st14"
   cx="57.450001"
   cy="157"
   r="11"
   id="circle16" />&#10;	<path
   class="st4"
   d="m 57.45,148.5 c 4.69,0 8.5,3.81 8.5,8.5 0,4.69 -3.81,8.5 -8.5,8.5 -4.69,0 -8.5,-3.81 -8.5,-8.5 0,-4.69 3.82,-8.5 8.5,-8.5 m 0,-5 c -7.46,0 -13.5,6.04 -13.5,13.5 0,7.46 6.04,13.5 13.5,13.5 7.46,0 13.5,-6.04 13.5,-13.5 0,-7.46 -6.04,-13.5 -13.5,-13.5 z"
   id="path17" />&#10;</g><g
     id="g18"
     transform="matrix(0.57021902,0,0,0.57021902,18.049547,49.164429)">&#10;	<circle
   class="st8"
   cx="491.45001"
   cy="231"
   r="11"
   id="circle17" />&#10;	<path
   class="st4"
   d="m 491.45,222.5 c 4.69,0 8.5,3.81 8.5,8.5 0,4.69 -3.81,8.5 -8.5,8.5 -4.69,0 -8.5,-3.81 -8.5,-8.5 0,-4.69 3.82,-8.5 8.5,-8.5 m 0,-5 c -7.46,0 -13.5,6.04 -13.5,13.5 0,7.46 6.04,13.5 13.5,13.5 7.46,0 13.5,-6.04 13.5,-13.5 0,-7.46 -6.04,-13.5 -13.5,-13.5 z"
   id="path18" />&#10;</g></g>&#10;</svg>
